<?xml version="1.0" encoding="UTF-8" standalone="no"?>
<!DOCTYPE svg PUBLIC "-//W3C//DTD SVG 1.1//EN"
 "http://www.w3.org/Graphics/SVG/1.1/DTD/svg11.dtd">
<!-- Generated by graphviz version 2.38.0 (20140413.2041)
 -->
<!-- Title: G Pages: 1 -->
<svg width="300pt" height="210pt"
 viewBox="0.00 0.00 300.00 210.00" xmlns="http://www.w3.org/2000/svg" xmlns:xlink="http://www.w3.org/1999/xlink">
<g id="graph0" class="graph" transform="scale(1 1) rotate(0) translate(4 206)">
<title>G</title>
<polygon fill="white" stroke="none" points="-4,4 -4,-206 296,-206 296,4 -4,4"/>
<!-- jkphl/responsive&#45;images&#45;css -->
<g id="node1" class="node"><title>jkphl/responsive&#45;images&#45;css</title>
<path fill="#eeeeee" stroke="black" stroke-width="2" d="M161,-202C161,-202 12,-202 12,-202 6,-202 0,-196 0,-190 0,-190 0,-178 0,-178 0,-172 6,-166 12,-166 12,-166 161,-166 161,-166 167,-166 173,-172 173,-178 173,-178 173,-190 173,-190 173,-196 167,-202 161,-202"/>
<text text-anchor="middle" x="86.5" y="-180.3" font-family="Times New Roman,serif" font-size="14.00" fill="#314b5f">jkphl/responsive&#45;images&#45;css</text>
</g>
<!-- php -->
<g id="node2" class="node"><title>php</title>
<path fill="#eeeeee" stroke="black" d="M101.5,-36C101.5,-36 71.5,-36 71.5,-36 65.5,-36 59.5,-30 59.5,-24 59.5,-24 59.5,-12 59.5,-12 59.5,-6 65.5,-0 71.5,-0 71.5,-0 101.5,-0 101.5,-0 107.5,-0 113.5,-6 113.5,-12 113.5,-12 113.5,-24 113.5,-24 113.5,-30 107.5,-36 101.5,-36"/>
<text text-anchor="middle" x="86.5" y="-14.3" font-family="Times New Roman,serif" font-size="14.00" fill="#314b5f">php</text>
</g>
<!-- jkphl/responsive&#45;images&#45;css&#45;&gt;php -->
<g id="edge1" class="edge"><title>jkphl/responsive&#45;images&#45;css&#45;&gt;php</title>
<path fill="none" stroke="#1a2833" d="M73.9817,-165.802C65.8028,-153.457 55.8588,-136.055 51.5,-119 47.5381,-103.498 47.5381,-98.5017 51.5,-83 54.9053,-69.6759 61.7196,-56.1396 68.4378,-44.9686"/>
<polygon fill="#1a2833" stroke="#1a2833" points="71.5971,-46.521 73.9817,-36.198 65.6801,-42.7809 71.5971,-46.521"/>
<text text-anchor="middle" x="62.5" y="-98.5" font-family="Times New Roman,serif" font-size="10.00" fill="#767676">&gt;=7.1</text>
</g>
<!-- sabberworm/php&#45;css&#45;parser -->
<g id="node3" class="node"><title>sabberworm/php&#45;css&#45;parser</title>
<path fill="#eeeeee" stroke="black" d="M280,-119C280,-119 95,-119 95,-119 89,-119 83,-113 83,-107 83,-107 83,-95 83,-95 83,-89 89,-83 95,-83 95,-83 280,-83 280,-83 286,-83 292,-89 292,-95 292,-95 292,-107 292,-107 292,-113 286,-119 280,-119"/>
<text text-anchor="middle" x="187.5" y="-97.3" font-family="Times New Roman,serif" font-size="14.00" fill="#314b5f">sabberworm/php&#45;css&#45;parser: 8.1.0</text>
</g>
<!-- jkphl/responsive&#45;images&#45;css&#45;&gt;sabberworm/php&#45;css&#45;parser -->
<g id="edge2" class="edge"><title>jkphl/responsive&#45;images&#45;css&#45;&gt;sabberworm/php&#45;css&#45;parser</title>
<path fill="none" stroke="#1a2833" d="M107.92,-165.822C122.515,-154.116 142.028,-138.468 158.078,-125.596"/>
<polygon fill="#1a2833" stroke="#1a2833" points="160.5,-128.14 166.111,-119.153 156.12,-122.679 160.5,-128.14"/>
<text text-anchor="middle" x="150.5" y="-140" font-family="Times New Roman,serif" font-size="10.00" fill="#767676">^8.1</text>
</g>
<!-- sabberworm/php&#45;css&#45;parser&#45;&gt;php -->
<g id="edge3" class="edge"><title>sabberworm/php&#45;css&#45;parser&#45;&gt;php</title>
<path fill="none" stroke="#1a2833" d="M166.08,-82.822C151.485,-71.1164 131.972,-55.4679 115.922,-42.5959"/>
<polygon fill="#1a2833" stroke="#1a2833" points="117.88,-39.6792 107.889,-36.1533 113.5,-45.1401 117.88,-39.6792"/>
<text text-anchor="middle" x="157" y="-57" font-family="Times New Roman,serif" font-size="10.00" fill="#767676">&gt;=5.3.2</text>
</g>
</g>
</svg>
