<?xml version="1.0" encoding="UTF-8" standalone="no"?>
<!DOCTYPE svg PUBLIC "-//W3C//DTD SVG 1.1//EN"
 "http://www.w3.org/Graphics/SVG/1.1/DTD/svg11.dtd">
<!-- Generated by graphviz version 2.38.0 (20140413.2041)
 -->
<!-- Title: G Pages: 1 -->
<svg width="462pt" height="210pt"
 viewBox="0.00 0.00 462.11 210.00" xmlns="http://www.w3.org/2000/svg" xmlns:xlink="http://www.w3.org/1999/xlink">
<g id="graph0" class="graph" transform="scale(1 1) rotate(0) translate(4 206)">
<title>G</title>
<polygon fill="white" stroke="none" points="-4,4 -4,-206 458.106,-206 458.106,4 -4,4"/>
<!-- jkphl/responsive&#45;images&#45;css -->
<g id="node1" class="node"><title>jkphl/responsive&#45;images&#45;css</title>
<path fill="#eeeeee" stroke="black" stroke-width="2" d="M210.106,-202C210.106,-202 64.1062,-202 64.1062,-202 58.1062,-202 52.1062,-196 52.1062,-190 52.1062,-190 52.1062,-178 52.1062,-178 52.1062,-172 58.1062,-166 64.1062,-166 64.1062,-166 210.106,-166 210.106,-166 216.106,-166 222.106,-172 222.106,-178 222.106,-178 222.106,-190 222.106,-190 222.106,-196 216.106,-202 210.106,-202"/>
<text text-anchor="middle" x="137.106" y="-180.3" font-family="Times,serif" font-size="14.00" fill="#314b5f">jkphl/responsive&#45;images&#45;css</text>
</g>
<!-- php -->
<g id="node2" class="node"><title>php</title>
<path fill="#eeeeee" stroke="black" d="M152.106,-36C152.106,-36 122.106,-36 122.106,-36 116.106,-36 110.106,-30 110.106,-24 110.106,-24 110.106,-12 110.106,-12 110.106,-6 116.106,-0 122.106,-0 122.106,-0 152.106,-0 152.106,-0 158.106,-0 164.106,-6 164.106,-12 164.106,-12 164.106,-24 164.106,-24 164.106,-30 158.106,-36 152.106,-36"/>
<text text-anchor="middle" x="137.106" y="-14.3" font-family="Times,serif" font-size="14.00" fill="#314b5f">php</text>
</g>
<!-- jkphl/responsive&#45;images&#45;css&#45;&gt;php -->
<g id="edge1" class="edge"><title>jkphl/responsive&#45;images&#45;css&#45;&gt;php</title>
<path fill="none" stroke="#1a2833" d="M68.8343,-165.998C44.7501,-156.361 20.1828,-141.544 6.10621,-119 -20.8453,-75.8368 52.8772,-44.3824 100.4,-29.2005"/>
<polygon fill="#1a2833" stroke="#1a2833" points="101.573,-32.5013 110.098,-26.2094 99.5103,-25.8123 101.573,-32.5013"/>
<text text-anchor="middle" x="18.6062" y="-98.5" font-family="Times,serif" font-size="10.00" fill="#767676">&gt;=7.1</text>
</g>
<!-- chriskonnertz/string&#45;calc -->
<g id="node3" class="node"><title>chriskonnertz/string&#45;calc</title>
<path fill="#eeeeee" stroke="black" d="M221.606,-119C221.606,-119 52.6062,-119 52.6062,-119 46.6062,-119 40.6062,-113 40.6062,-107 40.6062,-107 40.6062,-95 40.6062,-95 40.6062,-89 46.6062,-83 52.6062,-83 52.6062,-83 221.606,-83 221.606,-83 227.606,-83 233.606,-89 233.606,-95 233.606,-95 233.606,-107 233.606,-107 233.606,-113 227.606,-119 221.606,-119"/>
<text text-anchor="middle" x="137.106" y="-97.3" font-family="Times,serif" font-size="14.00" fill="#314b5f">chriskonnertz/string&#45;calc: v1.0.9</text>
</g>
<!-- jkphl/responsive&#45;images&#45;css&#45;&gt;chriskonnertz/string&#45;calc -->
<g id="edge2" class="edge"><title>jkphl/responsive&#45;images&#45;css&#45;&gt;chriskonnertz/string&#45;calc</title>
<path fill="none" stroke="#1a2833" d="M137.106,-165.822C137.106,-155.19 137.106,-141.306 137.106,-129.204"/>
<polygon fill="#1a2833" stroke="#1a2833" points="140.606,-129.153 137.106,-119.153 133.606,-129.153 140.606,-129.153"/>
<text text-anchor="middle" x="146.106" y="-140" font-family="Times,serif" font-size="10.00" fill="#767676">^1.0</text>
</g>
<!-- sabberworm/php&#45;css&#45;parser -->
<g id="node4" class="node"><title>sabberworm/php&#45;css&#45;parser</title>
<path fill="#eeeeee" stroke="black" d="M442.106,-119C442.106,-119 264.106,-119 264.106,-119 258.106,-119 252.106,-113 252.106,-107 252.106,-107 252.106,-95 252.106,-95 252.106,-89 258.106,-83 264.106,-83 264.106,-83 442.106,-83 442.106,-83 448.106,-83 454.106,-89 454.106,-95 454.106,-95 454.106,-107 454.106,-107 454.106,-113 448.106,-119 442.106,-119"/>
<text text-anchor="middle" x="353.106" y="-97.3" font-family="Times,serif" font-size="14.00" fill="#314b5f">sabberworm/php&#45;css&#45;parser: 8.1.0</text>
</g>
<!-- jkphl/responsive&#45;images&#45;css&#45;&gt;sabberworm/php&#45;css&#45;parser -->
<g id="edge3" class="edge"><title>jkphl/responsive&#45;images&#45;css&#45;&gt;sabberworm/php&#45;css&#45;parser</title>
<path fill="none" stroke="#1a2833" d="M182.65,-165.921C216.252,-153.32 262.143,-136.111 297.844,-122.723"/>
<polygon fill="#1a2833" stroke="#1a2833" points="299.49,-125.844 307.624,-119.056 297.032,-119.29 299.49,-125.844"/>
<text text-anchor="middle" x="267.106" y="-140" font-family="Times,serif" font-size="10.00" fill="#767676">^8.1</text>
</g>
<!-- chriskonnertz/string&#45;calc&#45;&gt;php -->
<g id="edge4" class="edge"><title>chriskonnertz/string&#45;calc&#45;&gt;php</title>
<path fill="none" stroke="#1a2833" d="M137.106,-82.822C137.106,-72.1903 137.106,-58.306 137.106,-46.2035"/>
<polygon fill="#1a2833" stroke="#1a2833" points="140.606,-46.1532 137.106,-36.1533 133.606,-46.1533 140.606,-46.1532"/>
<text text-anchor="middle" x="153.606" y="-57" font-family="Times,serif" font-size="10.00" fill="#767676">&gt;=5.6.0</text>
</g>
<!-- sabberworm/php&#45;css&#45;parser&#45;&gt;php -->
<g id="edge5" class="edge"><title>sabberworm/php&#45;css&#45;parser&#45;&gt;php</title>
<path fill="none" stroke="#1a2833" d="M307.562,-82.921C267.681,-67.9657 210.489,-46.5187 173.569,-32.6734"/>
<polygon fill="#1a2833" stroke="#1a2833" points="174.775,-29.388 164.183,-29.1538 172.317,-35.9423 174.775,-29.388"/>
<text text-anchor="middle" x="274.606" y="-57" font-family="Times,serif" font-size="10.00" fill="#767676">&gt;=5.3.2</text>
</g>
</g>
</svg>
