<?xml version="1.0" encoding="UTF-8" standalone="no"?>
<!DOCTYPE svg PUBLIC "-//W3C//DTD SVG 1.1//EN"
 "http://www.w3.org/Graphics/SVG/1.1/DTD/svg11.dtd">
<!-- Generated by graphviz version 2.38.0 (20140413.2041)
 -->
<!-- Title: G Pages: 1 -->
<svg width="474pt" height="210pt"
 viewBox="0.00 0.00 473.65 210.00" xmlns="http://www.w3.org/2000/svg" xmlns:xlink="http://www.w3.org/1999/xlink">
<g id="graph0" class="graph" transform="scale(1 1) rotate(0) translate(4 206)">
<title>G</title>
<polygon fill="white" stroke="none" points="-4,4 -4,-206 469.649,-206 469.649,4 -4,4"/>
<!-- jkphl/responsive&#45;images&#45;css -->
<g id="node1" class="node"><title>jkphl/responsive&#45;images&#45;css</title>
<path fill="#eeeeee" stroke="black" stroke-width="2" d="M212.649,-202C212.649,-202 63.6486,-202 63.6486,-202 57.6486,-202 51.6486,-196 51.6486,-190 51.6486,-190 51.6486,-178 51.6486,-178 51.6486,-172 57.6486,-166 63.6486,-166 63.6486,-166 212.649,-166 212.649,-166 218.649,-166 224.649,-172 224.649,-178 224.649,-178 224.649,-190 224.649,-190 224.649,-196 218.649,-202 212.649,-202"/>
<text text-anchor="middle" x="138.149" y="-180.3" font-family="Times New Roman,serif" font-size="14.00" fill="#314b5f">jkphl/responsive&#45;images&#45;css</text>
</g>
<!-- php -->
<g id="node2" class="node"><title>php</title>
<path fill="#eeeeee" stroke="black" d="M153.149,-36C153.149,-36 123.149,-36 123.149,-36 117.149,-36 111.149,-30 111.149,-24 111.149,-24 111.149,-12 111.149,-12 111.149,-6 117.149,-0 123.149,-0 123.149,-0 153.149,-0 153.149,-0 159.149,-0 165.149,-6 165.149,-12 165.149,-12 165.149,-24 165.149,-24 165.149,-30 159.149,-36 153.149,-36"/>
<text text-anchor="middle" x="138.149" y="-14.3" font-family="Times New Roman,serif" font-size="14.00" fill="#314b5f">php</text>
</g>
<!-- jkphl/responsive&#45;images&#45;css&#45;&gt;php -->
<g id="edge1" class="edge"><title>jkphl/responsive&#45;images&#45;css&#45;&gt;php</title>
<path fill="none" stroke="#1a2833" d="M69.0227,-165.983C44.8676,-156.359 20.2783,-141.554 6.14857,-119 -20.998,-75.6689 53.2831,-44.2799 101.165,-29.1535"/>
<polygon fill="#1a2833" stroke="#1a2833" points="102.392,-32.4387 110.936,-26.1741 100.35,-25.7431 102.392,-32.4387"/>
<text text-anchor="middle" x="17.1486" y="-98.5" font-family="Times New Roman,serif" font-size="10.00" fill="#767676">&gt;=7.1</text>
</g>
<!-- chriskonnertz/string&#45;calc -->
<g id="node3" class="node"><title>chriskonnertz/string&#45;calc</title>
<path fill="#eeeeee" stroke="black" d="M226.649,-119C226.649,-119 49.6486,-119 49.6486,-119 43.6486,-119 37.6486,-113 37.6486,-107 37.6486,-107 37.6486,-95 37.6486,-95 37.6486,-89 43.6486,-83 49.6486,-83 49.6486,-83 226.649,-83 226.649,-83 232.649,-83 238.649,-89 238.649,-95 238.649,-95 238.649,-107 238.649,-107 238.649,-113 232.649,-119 226.649,-119"/>
<text text-anchor="middle" x="138.149" y="-97.3" font-family="Times New Roman,serif" font-size="14.00" fill="#314b5f">chriskonnertz/string&#45;calc: v1.0.10</text>
</g>
<!-- jkphl/responsive&#45;images&#45;css&#45;&gt;chriskonnertz/string&#45;calc -->
<g id="edge2" class="edge"><title>jkphl/responsive&#45;images&#45;css&#45;&gt;chriskonnertz/string&#45;calc</title>
<path fill="none" stroke="#1a2833" d="M138.149,-165.822C138.149,-155.19 138.149,-141.306 138.149,-129.204"/>
<polygon fill="#1a2833" stroke="#1a2833" points="141.649,-129.153 138.149,-119.153 134.649,-129.153 141.649,-129.153"/>
<text text-anchor="middle" x="152.149" y="-140" font-family="Times New Roman,serif" font-size="10.00" fill="#767676">^1.0.10</text>
</g>
<!-- sabberworm/php&#45;css&#45;parser -->
<g id="node4" class="node"><title>sabberworm/php&#45;css&#45;parser</title>
<path fill="#eeeeee" stroke="black" d="M453.649,-119C453.649,-119 268.649,-119 268.649,-119 262.649,-119 256.649,-113 256.649,-107 256.649,-107 256.649,-95 256.649,-95 256.649,-89 262.649,-83 268.649,-83 268.649,-83 453.649,-83 453.649,-83 459.649,-83 465.649,-89 465.649,-95 465.649,-95 465.649,-107 465.649,-107 465.649,-113 459.649,-119 453.649,-119"/>
<text text-anchor="middle" x="361.149" y="-97.3" font-family="Times New Roman,serif" font-size="14.00" fill="#314b5f">sabberworm/php&#45;css&#45;parser: 8.1.0</text>
</g>
<!-- jkphl/responsive&#45;images&#45;css&#45;&gt;sabberworm/php&#45;css&#45;parser -->
<g id="edge3" class="edge"><title>jkphl/responsive&#45;images&#45;css&#45;&gt;sabberworm/php&#45;css&#45;parser</title>
<path fill="none" stroke="#1a2833" d="M185.169,-165.921C220.007,-153.267 267.642,-135.964 304.567,-122.552"/>
<polygon fill="#1a2833" stroke="#1a2833" points="305.989,-125.759 314.193,-119.056 303.599,-119.18 305.989,-125.759"/>
<text text-anchor="middle" x="271.149" y="-140" font-family="Times New Roman,serif" font-size="10.00" fill="#767676">^8.1</text>
</g>
<!-- chriskonnertz/string&#45;calc&#45;&gt;php -->
<g id="edge4" class="edge"><title>chriskonnertz/string&#45;calc&#45;&gt;php</title>
<path fill="none" stroke="#1a2833" d="M138.149,-82.822C138.149,-72.1903 138.149,-58.306 138.149,-46.2035"/>
<polygon fill="#1a2833" stroke="#1a2833" points="141.649,-46.1532 138.149,-36.1533 134.649,-46.1533 141.649,-46.1532"/>
<text text-anchor="middle" x="152.649" y="-57" font-family="Times New Roman,serif" font-size="10.00" fill="#767676">&gt;=5.6.0</text>
</g>
<!-- sabberworm/php&#45;css&#45;parser&#45;&gt;php -->
<g id="edge5" class="edge"><title>sabberworm/php&#45;css&#45;parser&#45;&gt;php</title>
<path fill="none" stroke="#1a2833" d="M314.128,-82.921C272.604,-67.8379 212.899,-46.1516 174.82,-32.3201"/>
<polygon fill="#1a2833" stroke="#1a2833" points="175.752,-28.9349 165.158,-28.8105 173.362,-35.5143 175.752,-28.9349"/>
<text text-anchor="middle" x="277.649" y="-57" font-family="Times New Roman,serif" font-size="10.00" fill="#767676">&gt;=5.3.2</text>
</g>
</g>
</svg>
