<?xml version="1.0" encoding="UTF-8" standalone="no"?>
<!DOCTYPE svg PUBLIC "-//W3C//DTD SVG 1.1//EN"
 "http://www.w3.org/Graphics/SVG/1.1/DTD/svg11.dtd">
<!-- Generated by graphviz version 2.38.0 (20140413.2041)
 -->
<!-- Title: G Pages: 1 -->
<svg width="178pt" height="127pt"
 viewBox="0.00 0.00 178.00 127.00" xmlns="http://www.w3.org/2000/svg" xmlns:xlink="http://www.w3.org/1999/xlink">
<g id="graph0" class="graph" transform="scale(1 1) rotate(0) translate(4 123)">
<title>G</title>
<polygon fill="white" stroke="none" points="-4,4 -4,-123 174,-123 174,4 -4,4"/>
<!-- jkphl/responsive&#45;images&#45;css -->
<g id="node1" class="node"><title>jkphl/responsive&#45;images&#45;css</title>
<path fill="#eeeeee" stroke="black" stroke-width="2" d="M158,-119C158,-119 12,-119 12,-119 6,-119 0,-113 0,-107 0,-107 0,-95 0,-95 0,-89 6,-83 12,-83 12,-83 158,-83 158,-83 164,-83 170,-89 170,-95 170,-95 170,-107 170,-107 170,-113 164,-119 158,-119"/>
<text text-anchor="middle" x="85" y="-97.3" font-family="Times,serif" font-size="14.00" fill="#314b5f">jkphl/responsive&#45;images&#45;css</text>
</g>
<!-- php -->
<g id="node2" class="node"><title>php</title>
<path fill="#eeeeee" stroke="black" d="M100,-36C100,-36 70,-36 70,-36 64,-36 58,-30 58,-24 58,-24 58,-12 58,-12 58,-6 64,-0 70,-0 70,-0 100,-0 100,-0 106,-0 112,-6 112,-12 112,-12 112,-24 112,-24 112,-30 106,-36 100,-36"/>
<text text-anchor="middle" x="85" y="-14.3" font-family="Times,serif" font-size="14.00" fill="#314b5f">php</text>
</g>
<!-- jkphl/responsive&#45;images&#45;css&#45;&gt;php -->
<g id="edge1" class="edge"><title>jkphl/responsive&#45;images&#45;css&#45;&gt;php</title>
<path fill="none" stroke="#1a2833" d="M85,-82.822C85,-72.1903 85,-58.306 85,-46.2035"/>
<polygon fill="#1a2833" stroke="#1a2833" points="88.5001,-46.1532 85,-36.1533 81.5001,-46.1533 88.5001,-46.1532"/>
<text text-anchor="middle" x="97.5" y="-57" font-family="Times,serif" font-size="10.00" fill="#767676">&gt;=7.1</text>
</g>
</g>
</svg>
